<?xml version="1.0" encoding="UTF-8"?>
<svg id="Calque_1" xmlns="http://www.w3.org/2000/svg" version="1.1" viewBox="0 0 1139.6 481.3">
  <!-- Generator: Adobe Illustrator 29.1.0, SVG Export Plug-In . SVG Version: 2.1.0 Build 142)  -->
  <defs>
    <style>
      .st0 {
        fill: #fff;
      }

      .st1 {
        display: none;
        fill: #1d1d1b;
      }

      .st2 {
        fill: #1d6ba7;
      }
    </style>
  </defs>
  <g id="Calque_2">
    <path class="st1" d="M1245.7,426.3c-2-.7-9.3,2-18.8,4.4-.8,0-1.4-.1-1.4-.1-5.7,0-9.7-.9-11.2-1.5-29.4-7.7-35.3-37.2-35.6-43,1-41.8,28.4-45.6,32.5-45.9,14.1-1.1,22.3,1.4,27.3,4.8,5,5,5.7,11.9,6,14,1.2,10.7-9.1,19.1-12.2,21s-12.1,1.1-15.8.8-5.9-3.9-6.9-5.3c-5.2-2.2-6.3-12-6.4-13.1s2-4.9,3.1-4c1.1,1.4,3.7.2,5.6-.5s-1.5-4.3-2.6-5.3c-1.1-1-3.2.3-4.5,1.4-3.4,3.5-4.1,6.3-4.9,9-1.5,10.8,5.7,16,7.8,17.5,11.1,7.9,28.1.9,29.5.5,10.4-5.4,14.9-14.6,15.1-21.6.2-7.2-3.8-12.3-8-17.2-1.4-1.6-3.4-2.8-5.5-3.6-5.8-4.3-15.2-8.6-29.9-8.3,0,0,0,0,0,0-3.6.2-6.5,1.2-8,1.8-13.5,5.9-44.3,23-38.2,63.3,1.5,7.6,5,38.8,59.6,43,2.6.1,4,.9,8.6-.4,3.2-.1,5.1-.4,6.2-1.1,5.6-3.4,13.8-8.5,8.4-10.3h0,0Z"/>
    <path class="st1" d="M1255.4,355.2c.2-7.2-3.8-12.3-8-17.2-1.4-1.6-3.4-2.8-5.5-3.6-5.8-4.3-15.2-8.6-29.9-8.3,0,0,0,0,0,0-3.6.2-6.5,1.2-8,1.8-13.5,5.9-44.3,23-38.2,63.3,1.5,7.6,5,38.8,59.6,43,3.3.2,4.6,1.3,13.3-1.9,2.4-.9,3.5-3.1,7.7-4.6-1.2-1.5-.5-2.4-2.3-2.4-.4.1-1-.3-1.4-.4,1.6-.9,3.5-1.9,3.5-1.9-1.1.2-2.1,1-3.6,1.9h-.1s-.1,0-.3.2c-1.4.8-3.2,1.6-5.9,2.2-.5.1-7.7-.6-7.7-.6-5.7,0-9.7-.9-11.2-1.5-29.4-7.7-35.3-37.2-35.6-43,0-1.2,0-2.4.2-3.6,7.4,3.1,25.8,10.2,36.5,7.9,13.6-2.9,23.4-5.6,28.2-13.6,0,0,0,0,0,0,5.9-5.2,8.6-11.9,8.8-17.3h0s0,0,0,0h0ZM1241.8,425.3c-.5.4-1.2,1-1.2,1-.2,0,.4-.5,1.2-1ZM1182.7,371.5c4.9-32,27.9-35.2,31.7-35.5,14.1-1.1,22.3,1.4,27.3,4.8,5,5,5.7,11.9,6,14,.6,5.6-1.9,10.5-4.9,14.3-1.7,2.1-4.9,5.4-9.8,8.1-2.5,1.3-5,2.2-6.9,2.8.2,0,.3,0,.5,0-9.9,3.1-24.3,2.8-44-8.5h0Z"/>
    <path class="st1" d="M1205.3,324.8c-2.6,2-7.4,4.2-4.4,0-3.7,2.3-5.9,6-21,1.7,2.9-3,7.4-8.9,4.1-9.5-3.3,3-7.7,4.9-9.9,7.9-2.6-.6-21-1-26.9,4.6,2.9-1,11-2.6-1.8,3.3-2.9,1.3-12.9,8.9-12.9,7.9s5.2-7.9,1.8-12.5c2.2-3.3,7.7-7.9,6.6-9.8-1.1-2-12.9,6.5-12.9,6.5,0,0-12.8-4-20.7,3.3,4.5-.6,8.9-1.6,8.9-1.6,0,0-24.6,12.1-28.6,20.3,1.1-3.6-2.2-6.9-2.9-4.6-.7,2.3-4.1-17.4-23.2-18.7-5.5.7-19.9.9-23.2,4.6s-35.7,25.5-10.3,37.5c9.2,6.1,18.4,12.1,26.1-1.9,1.5-4.1,0-9.9-5.9-8-.7-.4-2.9-4.3-3.3-1.4-.4,3-5.2,14.4-11.8,9.4-3.7-5.8-16.2-19.4,6.6-32.6,10.3-2.7,26.1-6.3,31.7,2.9,2.8,6.7,6.8,22.5-7.8,42.3v-.6l-8.5,4.8-28.4,32.2c-3.8,3.1-7.7,5.9-11.1,7.6,0,0-12,6.2-15.5,7.9.2.2.8.3,1.7.4l-1.7,1h11.2l17-6.6,5.1-4.7.4-.4c3.3-2.2,17-11.3,27.6-22.1,12.2-12.5,20.6-31.9,20.6-31.9,0,0,52.6-46.3,43.4-32.6-2.9,3.9-48.5,45.8-62.2,73.4-4.5,6.6-12.6,24.9-1.9,28.5,8.1-2.3,18.4-11.5,25-19,8.5-7.2,69.2-77.2,85-82.9h0c-7.1,7.9-57.8,54.7-62.2,79.6-.4,7.9,0,23,14.3,23.6,4.4,0,30.6-15.7,35.3-24.9,1.1-1.6-22.1,21.6-31.3,19.4,8.1-2.6,17.7-8.5,16.9-11.5-1.8.3-16.2,17.1-23.6,6.9,3.3-8.9,6.3-30.3,31.7-58.6,2.2-3.7,10.7-19.5,20.2-22.7,7-3.9,11.4-10.8,15.8-10.2,4.4.3,12.5,2.9,16.6-4.1,2.6-3.4,2.6-5.8,0-3.8h0s0,0,0,0ZM1084.1,356.8c.5-8.9,9.6-14.3,11.8-16.2,10.6-10.7,26.5-12.5,26.5-12.5l-38.3,28.7ZM1079.7,416.4c-.2-1.5,18.4-26.2,18.4-26.2,0,0,21.6-34.3,38-49.4,16.4-15.1,29.7-9.7,29.7-9.7-9.1,2.4-81,80.5-86.1,85.3Z"/>
    <path class="st1" d="M1139.8,117.4s16.3-24.8,9.3-27.9c-7,1.6-58.8,24.8-143.2,127-7-4.6-38.7-39.4-65.8-26.7-3.1-2.7-44.1-24.4-71.2-8.9-10.1,5.4-24.8,21.6-30.2,27.8,0,0-55-19.4-116.1,10.8-2.3,2.3-104.5,30.4-89,132.5,3.1,15.4,10.1,78.1,120,86.6,13.9.8,89.8,2.3,154.1-57.3,10.1,2.3,61.2,22,64.3,20.7-7.7,14.2-11.6,24-11.6,24,0,0,3.9,8.7,11.6,8.7s20.1-5.8,20.1-5.8l10.1-27s54.2-6.7,72-39.3c-6.2,2.3-40.3,35.6-68.9,30.2,7.7-14.7,103.7-190.4,103.7-190.4,0,0,2.3-31.1,57.3-79.8-8.5-7-26.3-5.4-26.3-5.4h0ZM1139.3,104c-10.8,13.4-14.4,15.5-14.4,15.5l-17.6,4.1s37.7-33,32-19.6ZM942.1,213.9c4.1-3.6,28.2.2,34.1,39.2-7.7,9.8-41.3,47.4-41.3,47.4,0,0-29.9-52.6,7.2-86.6h0ZM978.7,261.4c0,5.7-29.9,50.6-40.8,48.5,0,0,40.8-54.2,40.8-48.5ZM928.8,196.4c-7.4,10.3-25.8,37.1-17.6,76.1,8.2,39,13.3,41.2,13.3,41.2,0,0-30.3,39.6-38.7,40.6,0,0-25.8-18.5-19.1-29.4,6.7-10.9,21.8-28.9,19.1-55.3-2.6-26.3-27.9-50.6-27.9-50.6,0,0,30.8-43.9,70.9-22.7h0ZM850.2,240.8c10.3,19.1,17.7,44.4,4.7,65.4,0,0-12.4-43.7-4.7-65.4ZM753.2,212.4c-4.7,2.6,50.1-1,63.5,3.4s16.5,9,16.5,9c0,0-9.3,47.6,14.5,94.5-5.7,7.7-19.1,30.9-49,25.8,6.7-8.3,31.5-59.4,3.1-92.4-6.7-8.3-26.3-32.5-75.3-31.5,0,0,25.3-13.4,26.8-8.8h0ZM834.1,343.9c-9.8,3.7-19.3,5.1-19.3,5.1,0,0,24.5-9.8,19.3-5.1ZM655.3,387.7c-10.8-11.2-12.8-33.4-12.8-33.4,4.7,17.7,29.8,47,31,52.4-1.9-.8-7.3-7.7-18.2-19h0ZM737.1,420.4c-59.2-15.5-71.1-74.8-71.6-86.7,2.1-84.1,57.3-91.9,65.5-92.4,56.1-4.2,66.1,19.1,71.7,30.6,18.6,41.5-12.4,73.9-12.4,73.9-31,2.6-35.1-11.1-42.3-20.8-12.9-13.4,34.1-36.2,40.8-45,9.8-16.1-17-31.9-22.7-32.4-45.4,2.1-49,49-48,53.1,5.2,43.3,42.8,52.7,56.3,56.3-8.8,12.4-55.2,12.9-63,15.5,4.7,11.4,38.7,2.6,38.7,2.6,0,0,45.9-16.5,52.1-20.1,32.5-4.1,48.5-16.5,55.7-22.7-.5.5,20.7,25.3,25.3,28.9,1,2.1-31.5,27.9-40.8,34.1-49.5,36.1-97,28.9-105.4,25.3h0ZM802.7,423.5s85.2-48.5,86.7-58.9c6.2,6.7,11.9,10.3,11.9,10.3,0,0-40.8,45.5-98.6,48.5h0ZM914.7,359s-4.7,6.7-8.8,9.3c-4.1,2.6-12.4-9.3-12.4-9.3,0,0,28.4-29.4,34.1-39.7,5.7,8.3-10.8,33-12.9,35.6s0,4.1,0,4.1h0ZM975.7,392c-42.3,2.6-59.9-19.1-59.9-19.1l30.5-33s29.4,13.9,35.6,17.5c2.1,5.7-5.2,28.4-6.2,34.6ZM986.5,339.9c-23.2,5.7-32-11.4-32-11.4l32-42.3v53.6h0ZM982.2,244.9l-20.5-33.5c11.3-2.1,18.1,5.6,24.8,16.8,6.7,11.1-4.3,16.8-4.3,16.8h0ZM1010.7,310c-6.7,22.1-19.1,42.1-19.1,42.1v-76.5l9.3-11.4s7.7,11.7,7.2,40.3c3.6-6.5,9.3-16.6,2.6,5.5h0ZM1019,240.8c31.8-64,76.3-96.6,95.2-107.2.5-.3.9-.6,1.3-.7-.4.2-.9.5-1.3.7-18.3,12.3-88.5,145-88.5,145l-6.7-37.8h0ZM1145.4,132.9c-3.6,5.2-41.8,42.3-41.8,42.3l30.4-48.5s15,1,11.3,6.2h0Z"/>
    <path class="st0" d="M1015.5,94.9s-9.1,27.4-39.5,25.8c-7.6-.7-4.1-8.7,15.7-25.3,9-5.5,64.2-24.4,89.6-29.9,14.6-4.7,24.4-10.2,24.4-10.2,0,0,11,2.1-24.8,40,2.5.5,25.9-15.6,39.3-43.8,6.9-11,25-30.2,17.6-33.1-5.9-1.5-15.1,26.4-32.3,31.9s-95.5,29.6-113,38.7c-1.2,2.7-43.2,15-29.1,35.9,3.4,4.4,24.1,9.3,38.4-4.2s15.4-23.1,13.7-25.8h0Z"/>
    <path class="st0" d="M547.1,239.2s-12.9,12.2-21.5,38.2c.2-4.6.4-7-4.9,9.9-.9,3-5.8,16.2-5.8,16.2,0,0-2.8,10.4,6.6-2.8,9.4-13.2,9.8-21.2,10.7-23.7s15.9-34.6,15-37.7h0Z"/>
    <path class="st1" d="M549,338.9c-2.2,1.7-6.3,3.7-3.8,0-3.2,2-5.1,5.1-18.1,1.5,2.5-2.6,6.3-7.7,3.5-8.2-2.8,2.5-6.7,4.2-8.6,6.8-2.2-.6-18.1-.8-23.1,4,2.4-.8,8.5-2,.6,1.8h0c.8.4,2.1.2,3.1,0,.5-.1,1-.3,1.4-.4h0c4.1-1,7.3-.8,9.2-.4h0c1.1.2,1.7.5,1.8.5,2.3.4,4.9,0,4.9,0h0c-4,4.5-24.1,23.2-38.5,41.7.3-5.7,1-16.9,2.7-26.8h0c.8-5.5-.5-13.4-.5-13.4-.4-1.4-1.1-2.6-2.5-3.2.2-2.6,1.8-7,.5-7.8-1.3-.8-5.1,8-5.1,8,0,0-8.5,2-10.6,8.7,2.4-1.9,4.5-3.8,4.5-3.8,0,0-9.2,14-9.5,20.3l.5,1.1c.5-3,1.8-5.6,2.1-6.7,2.4-9.6,10.9-15.8,10.9-15.8h0c.4-.1.7-.4.7-.4l-13,30.9c-4.8,12-9.6,24-13,32.7h0s-3.8,11-7.8,19.9c.5.3,1.1.6,1.7.9,2.2-3.9,4.1-8.3,5.4-12,1.8-3.4,7.3-18.5,13.8-35.2h0c.4-1,.7-2,1.1-2.9h0l.5-1.3s0,0,0,0c0-.2.2-.5.3-.7v-.2h0c4.3-11,8.9-22.2,13.1-30.9-.6,3.8-12.2,42.1-10.8,62,0,1,0,2.4,0,3.8-.3,6.9.2,19.4,12.4,20,3.8,0,26.3-13.6,30.4-21.5,1-1.4-19,18.6-27,16.7,7-2.3,15.2-7.4,14.6-9.9-1.6.3-14,14.7-20.3,6,2.9-7.6,5.4-26.1,27.3-50.5,1.9-3.2,9.2-16.8,17.4-19.6,6-3.4,9.8-9.3,13.6-8.8,3.8.3,10.8,2.5,14.3-3.5,2.2-3,2.2-5,0-3.2h0,0Z"/>
    <path class="st1" d="M443.7,427.2c-1-.5-1.9,1.2-2.5.5l-1.2-1.6c-.7-.5-1.5-1.7-.9-3.3,2.2-9,8.7-31.1,3.1-41.3,0-.1-.3-.5-.8-1.2-.2-.3-.4-.5-.6-.8,0,0,0,0,0,0-1.4-1.9-3.7-4.6-6.5-5.9,0,0,10-16.8,8.3-30.6-.2-1.8-2.1-15.4-13.6-17.4-1.5-.4-8.1-.5-15.5,9.5,0,0-.5.2-1,3.4,0,0-.8,1.6-1.3,4.3-.5,3-.5,7.5,1.5,12.9-.1,0-.2.9.8,2.3-2-.5-4.3-1.3-4.3-1.3,0,0-7.4-2.1-2.4.8,3.3,1.9,7.1,2.7,9.3,3,.8.6,1.8,1.2,3,1.8.3.2,1.3,1.4,2.6,2.8-5.2,9.5-26,53-37.9,60.1-1.2.7-5.3,5.1-4.8,6.1.4.7,3.5-.6,12.8-7.5,21.3-15.6,26.1-27.4,27.6-29.6s7.8-19.4,10.5-15.8c2.7,3.6,7.2,2.4,3.9,15.8-3.3,13.4-9.6,27.9-1.2,35.7.7.6,1.3,1.1,2,1.6,3.4,3.1,7.7,0,7.7,0l.8-4.1h0,0ZM432,371.2c-1.4-.9-8.1-6.1-8.2-9.4,1.9-.3,8.4-2.7,8.9-8.8,0-1.9-1-5.8-5-4.4s-1.4,7.2-1.4,7.2c0,0-1.1,5.3-5,1.3,0,0-6.2-14.5-.6-21.3,1.1-1.3,5.1-6,11.4-.7.3.2,1.2,1,2.3,2.4l1.2,1.7c2.8,4.3,5.6,12.1,2.1,24.1-.1.9,0,3.1-5.6,7.9h0Z"/>
    <path class="st1" d="M374.6,420.5c-.5.1-1.2-.5-1.7-.4l-1.8,1.5c-.5-.3,5.6-3.4,5.6-3.4-2.1.4-3.9,3-10,4.4-.5.1-7.7-.6-7.7-.6-5.7,0-9.7-.9-11.2-1.5-29.4-7.7-35.3-37.2-35.5-43,1-41.8,28.4-45.6,32.5-45.9,14.1-1.1,22.3,1.4,27.3,4.8,5,5,5.7,11.9,6,14,1.2,10.7-9.1,19.1-12.2,21s-12.1,1.1-15.9.8-5.9-3.9-6.9-5.3c-5.2-2.2-6.3-12-6.4-13.1s2-4.9,3.1-4c1,1.4,3.7.2,5.6-.5s-1.5-4.3-2.6-5.3-3.1.3-4.5,1.4c-3.4,3.5-4.1,6.3-4.9,9-1.5,10.8,5.7,16,7.8,17.5,11.1,7.9,28,.9,29.5.5,10.5-5.4,14.9-14.6,15.1-21.6.2-7.2-3.8-12.3-8-17.2-1.4-1.6-3.4-2.8-5.5-3.6-5.9-4.3-15.2-8.6-29.9-8.3,0,0,0,0,.1,0-3.6.2-6.5,1.2-8,1.8-13.5,5.9-44.3,23-38.2,63.3,1.5,7.6,5,38.8,59.6,43,3.4.2,4.6,1.3,13.3-1.9,2.4-.9,3.5-3.1,7.7-4.6-1.2-1.5-.5-2.4-2.3-2.4h0Z"/>
    <path class="st1" d="M361.3,433.8c1,.2,2,.4,3,.5,7.8.7,14.8-3.4,18.4-6.1-2.2-.2-4.9-.5-4.9-.5-5.9,0-10-.9-11.5-1.6-30.2-7.9-36.3-38.2-36.5-44.2,0-1.3,0-2.5.2-3.7,7.6,3.2,26.5,10.5,37.5,8.1,13.9-3,24.1-5.8,29-14,0,0,0,0,0,0,6.1-5.4,8.9-12.2,9-17.8.2-7.4-3.9-12.6-8.2-17.7-1.4-1.7-3.5-2.9-5.7-3.8-6-4.5-15.6-8.8-30.7-8.5,0,0,0,0,.1,0-3.7.2-6.7,1.2-8.2,1.9-13.8,6-45.5,23.6-39.2,65,1.4,7.1,4.5,34,46.6,42.2.4,0,.8.1,1.3.2h0,0ZM363.2,334.8c14.4-1.1,22.9,1.4,28.1,4.9,5.1,5.1,5.9,12.2,6.2,14.4.6,5.7-2,10.8-5,14.7-1.7,2.1-5,5.5-10,8.3-2.6,1.3-5.1,2.2-7.1,2.9.2,0,.3,0,.5,0-10.2,3.2-25,2.9-45.2-8.7,5-32.9,28.7-36.2,32.5-36.4h0Z"/>
    <path class="st1" d="M580.4,324.6c-1.1-1.9-12.3,6.3-12.3,6.3,0,0-12.2-3.8-19.9,3.1,4.3-.6,8.5-1.5,8.5-1.5,0,0-4.5,2.2-10,5.4h0c-6.8,4-15,9.5-17.3,13.8,0,0,0,0,0,0,.9-3.4-2.2-6.4-2.9-4.2-.7,2.2-3.9-16.6-22.2-17.9-5.3.6-19,.9-22.2,4.4-.6.6-2.1,1.9-4,3.5h4.5c.3-.2.6-.4,1-.6,9.9-2.6,25-6,30.3,2.8,1.5,3.5,3.2,9.6,2.3,17.5h0c0,1-.3,2.1-.5,3.2,0,.4-.1.7-.2,1.1,0,0,0,0,0,0-.4,1.5-.9,2.9-1.3,4.2,0,0,.1,0,.2-.1-.5,1.4-1,2.8-1.7,4.2,0,0,0,.1,0,.1h0c-1.5,3.2-3.5,6.6-6.1,10.2v-.6l-8.1,4.6-4.8,5.4c-3.7,1.8-8.8,4.5-9.4,4.7-1,.4-17.9,9.8-17.9,9.8,0,0-10.7,5.3-11.6,6.2s-8.9,8.9-9.8,11.7c-.9,2.8-.6,9.4,5.3,9.4.8-.1,1.2-.3,1.2-.3h5.1l16.3-6.3,4.9-4.5.4-.3c3.2-2.1,16.3-10.8,26.4-21.2,8.9-9.1,15.7-22.1,18.4-27.8.4-.8,2.7-5.7,3.3-9.8,0-.4,0-.9.2-1.3h0c.2-1.3.6-2.4,1.2-3.5,7.3-4.9,13.7-8.7,18.1-10.5,1-.5,2.3-1.1,3.7-1.7h0c4.6-2.2,10.4-5.2,13-7.5,3.9-2.7,5.8-3.3,3.4.2-2.8,3.7-46.5,43.9-59.5,70.3-4.3,6.3-12,23.9-1.8,27.3,7.8-2.2,17.6-11,24-18.2,2.1-1.8,7.6-7.6,14.8-15.4h0c2-2.3,3.5-4.3,4-5.6-.2-1.5-.1-2.9-3.7.6,0,0,0,0,0,0-1.3,1.3-2.7,2.5-3.8,3.7,0,0-.6.9-1.7,2.2,0,0,0,0,0,.1-8.4,8.8-14.5,15.4-15.9,16.6-.2-1.5,17.6-25.1,17.6-25.1,0,0,13.2-21,26.5-36.8h0s5.7-9.2,8-14.3c.4-.9.7-1.8,1-2.8,0-.2,0-.5.1-.7.3-1.7.1-3.4-.9-4.8,2.1-3.1,7.4-7.5,6.3-9.4h0s0,0,0,0ZM450.4,430.3c.3-.6.6-1.3.9-1.9l-.9,1.9ZM450.1,431s0,0,0,0h0ZM470.9,415c-3.6,3-7.3,5.6-10.6,7.3,0,0-4.1,2.1-8.1,4.2,0,0,0,0,0,0h0c0,0,0,0,0,0-.1.1-.6.6-3.7,0-3.6-.7,0-5.4,0-5.4,0,0,7.6-8.9,12.5-11.1,4.9-2.2,23-12.1,24.4-13.9.7-.9,2.9-2.1,5.3-3.5l-19.7,22.4h0,0ZM451.5,427.9c0,0,0-.1,0-.2v.2Z"/>
    <path class="st1" d="M463.6,429c-31-.3-10.8-54.7-6.6-63.1,8.1-7.8,6.6-14.4,3.9-15.3-8.4,6.3-21.6,7.5-29.5,9.9,4.5-9,4.8-23.1,1.8-31.3-3.6-9-15.9-3.3-20.8,3-14.1,17.7,4.5,33.1,4.5,33.1,0,0-1.8,0-14.1,25.9s-28,38.5-28,38.5c-3.3,3-2.1,4.5,2.4,2.8,30.7-13.5,49.6-57.5,49.9-62.9,3.3.3,11.4.3,17.4-2.7-20.5,54.1,7.2,65.6,7.2,65.6,0,0,13.2.9,11.7-3.3h0ZM420.3,354.4c-9-9.3,1.8-20.8,1.8-20.8,5.7,9,0,14.4-1.8,20.8Z"/>
    <path class="st0" d="M436.4,330.9s9,3.6-3.4,30-38,73.8-2.3,73.4c3.6-8.1,39.7-96.1,52.7-94.1,5.7,1.6-16.6,57.2-16.6,57.2,0,0-11.5,31.2,17.5,30,2.7-.8-8,.7,14.2-49.1,22.2-49.7,7-47.5,7-47.5,0,0-13.5-13.1-22.2-2.8-8.6,10.3-44.8,68.8-42.2,72.4,3.8-13.5,43.2-78.1-4.9-69.6h0Z"/>
    <path class="st0" d="M365.8,324.6c-31.6-3.3-58.2,45.9-58.2,45.9,0,0-21.6,63.5,19.4,63.7,8.9.2,44.8-15.1,29.8-35.4-1.2,3.1-24.4,56.9-28-.2l39.3-19.9s29.4-50.9-2.2-54.2h0ZM332,386.5c-.8-7.5,22.6-53,35.5-50.9s-7.2,36.4-7.2,36.4l-28.2,14.5h0Z"/>
    <path class="st0" d="M1110.7,325.8c-31.6-3.3-58.2,45.9-58.2,45.9,0,0-21.6,63.5,19.3,63.7,8.9.2,44.8-15.1,29.8-35.4-1.2,3.1-24.4,56.9-28-.2l39.3-19.9s29.4-50.9-2.2-54.2h0ZM1076.8,387.6c-.8-7.5,22.6-53,35.5-50.9s-7.2,36.4-7.2,36.4l-28.2,14.5h0Z"/>
    <path class="st0" d="M423.7,366.7c-5-1.1-17.3-1.8-17-5.7,3.2-3.6,15.9-31.8,0-35.9-4.1-.9-20,4.8-20,25.5-.5,7,6.8,15.9,13.6,18.2-2,4.5-32.9,61.3-53.6,48.4,0,0,3.2,7.5,9.8,7,6.6-.5,15.9-7,21.1-13s22.5-32.5,25-41.6c2.7,1.4,3.6,2.5,3.6,2.5,0,0-32.5,57.5-5.2,63.2,6.6,1.6,12.7-4.1,13.4-7.7-1.6-.7-16.4,4.8,9.3-60.9h0ZM404,358.8s-5-5.2-4.3-15.5,6.4-12.3,6.4-12.3c0,0,5.2,2.7,3.4,12s-3,13.6-5.5,15.7h0Z"/>
    <path class="st0" d="M303.8,417s4.5,16.8-25.5,17.7,0-94.1,0-94.1l8.2-27.3s-4.5-1.8-18.6,7.3c-2.7-4.1-.9-17.9,20.9-15.3,1.8-7.4,10.9-38.8,10.9-38.8,0,0-4.5-6.4-2.7-9.5,1.8-3.2,22.3,3.6,23.6,19.6s-.5,18.5,0,28.8c3.2-.6,7.5,3.5,17.1-7.2,2-.5,6.9-1,2.9,6-2.4,3.7-6.4,6.6-21.1,6.7-1.1,6.4-24.8,83.3-24.8,83.3,0,0-13.7,34.6,9.1,23h0Z"/>
    <path class="st0" d="M944,434.7s-23.2,3.9-16.5-22.2c6.7-26.1,20.4-53.2,20.4-53.2,0,0,9.3-16,1.3-22.7,4.1-3.4,17.8-.8,21.2,5.7,3.3,6.5-2.6,25.5-2.6,25.5l-16.5,34.8s37.7-74.1,50.3-72c12.7,2.1,16.8,9,16.8,9,0,0,2.3,8-2.8,22.5,8-13.2,25-41.8,34.3-37.7s16,5.4,13.9,17.8-20.1,56.3-24.8,69.2c1.3,6.7,3.3,14.2-5.4,10.8s-19.1-7.7-11.1-28.4,24.8-53.2,14.7-55.2c-2.3,0-22.7,33.5-22.7,33.5,0,0-22.5,42.1-19.3,52.9-.3,4.6-7.8,5.4-13.8.3-5.9-5.2-9-17,.8-37.2,9.8-20.1,16.3-44.1,10.6-43.6-2.6.8-38.5,54.7-46.5,81.3-.5,3.9-1,10.6-2.3,8.8h0Z"/>
    <path class="st0" d="M1053.8,117.4s16.3-24.8,9.3-27.9c-7,1.6-58.8,24.8-143.2,127-5.7-3.8-27.9-27.7-50.6-29.4l14.2,24.4c6.9,1.8,12,8.2,17,16.6,4.8,8,.5,13.2-2.4,15.4l-8,9.6c-1.5,1.9-4,4.8-6.9,8.3h0s0,0,0,0c-12.5,14.6-34.3,39.1-34.3,39.1,0,0-9.4-16.6-11.1-37.1l-14.3-3.9c.3,4.1.9,8.5,1.8,12.9,8.2,39,13.3,41.2,13.3,41.2l-41.3,47.4s-10,9.8-23.9,21.3c-6.9,5.4-13.5,10.4-16.9,12.7-49.5,36.1-97,28.9-105.4,25.3-59.2-15.5-71.1-74.8-71.6-86.7,2.1-84.1,57.3-91.9,65.5-92.4,56.1-4.2,66.1,19.1,71.7,30.6,18.6,41.5-12.4,73.9-12.4,73.9-31,2.6-35.1-11.1-42.3-20.8-12.9-13.4,34.1-36.2,40.8-45,9.8-16.1-17-31.9-22.7-32.4-45.4,2.1-49,49-48,53.1,5.2,43.3,42.8,52.7,56.3,56.3-8.8,12.4-55.2,12.9-63,15.5,4.7,11.4,38.7,2.6,38.7,2.6,0,0,45.9-16.5,52.1-20.1,10.2-1.3,18.7-3.4,25.9-5.8,15.8-5.4,24.9-12.6,29.9-16.9,5.1-4.1,8.8-7.2,8.8-7.2,6.7-10.9,21.8-28.9,19.1-55.3-2.4-24.4-24.3-47-27.5-50.2-.1-.1-.3-.3-.4-.4-3.8-4-19.3-10.3-19.3-10.3,0,0-38.3-13.5-86.6-.4h0c-9.5,2.6-19.4,6.2-29.5,11.2-2.3,2.3-104.5,30.4-89,132.5,3.1,15.4,10.1,78.1,120,86.6,13.5.8,85.1,2.2,148-51.9l18.2-18.2,26.6-28.8s9.9,4.7,19.4,9.3l3.2-9.4c-10.2-3.2-14.3-11.2-14.3-11.2l22.9-30.3s8.5-17.2,19.9-29.5l3.7-4.5s7.7,11.7,7.2,40.3c3.6-6.5,9.3-16.6,2.6,5.5-3.8,12.6-9.5,24.4-13.6,32.4,0,0-21.5,52.2-23.8,57-1.3,3-3.3,6.8-6,11.2-4.8,9.5-7.2,15.5-7.2,15.5,0,0,3.9,8.7,11.6,8.7s20.1-5.8,20.1-5.8l4.4-11.8s1.2-3.2,2.8-7.4l2.9-7.7h0c1.2-3.2,2.5-6.3,3.5-9-.2,0-.3,0-.5,0,7.7-14.7,103.7-190.4,103.7-190.4,0,0,2.3-31.1,57.3-79.8-8.5-7-26.3-5.4-26.3-5.4h0,0ZM767.5,247.2h0c8.4,18.1,13,40.2,1.4,59,0,0-6,12.9-12.1,19.9h0c-7.4,9.7-20.7,23-44.2,19,6.7-8.3,31.5-59.4,3.1-92.4-5.8-7.1-21.1-26.1-56.6-30.5h0c64.3-13.9,88,2.7,88,2.7,0,0,14.1,5.6,20.3,22.4h0ZM1053.3,104c-10.8,13.4-14.4,15.5-14.4,15.5l-17.6,4.1s37.7-33,32-19.6ZM933,240.8c31.8-64,76.3-96.6,95.2-107.2.5-.3.9-.6,1.3-.7-.4.2-.9.5-1.3.7-18.3,12.3-88.5,145-88.5,145l-6.7-37.8h0ZM1059.4,132.9c-3.6,5.2-41.8,42.3-41.8,42.3l30.5-48.5s15,1,11.3,6.2h0Z"/>
  </g>
  <g id="Calque_3">
    <path class="st1" d="M364.2,220.4s-18.3,46-72.6,39.4c-.2.2-.2-20.6-.2-20.6,0,0-18.5,3.2-19.2,18.6,0,.3,0,.5,0,.8-1,6.1-4.5,13.5-4.5,13.5v.6c-.6,4.9-2.5,38.4,4.7,67.7.6,3.5,1.3,23.6-1.2,43.3,0,0,0,0,0,.1,0,.3,0,.5-.1.8-.3,2.1-.6,4.2-1,6.3-2.7,20,0,30.3,2.8,35.6,4.1,6.2,9.8,8.8,14.5,8.5,24.8-3.3,39.7-58.4,43.8-75.9-4.6,13.5-21.7,45.8-31.4,60.9-11.4,17.8-11.5-29.1-11.5-29.1h0c1.1-5.5,1.8-11.6,1.9-18.4.5-50.5,0-98.2,0-98.2,0,0,67.8-2.4,74-37.7.2,0,0-16.1,0-16.1h0Z"/>
    <g>
      <path class="st2" d="M875.7,211.4c22.2,6.1,20.4,12.8,26.2,27.4l18.5-22.7c-2.8-3.3-6.1-5.9-9.8-7.5-.8-.9-32.5-30.6-56.5-18.8-24.9,12.2-31.5,51-30.8,66.9.5,12,1.7,36,14.8,57.5,1.6-2.9,10.9-13.7,10.9-13.7,0,0-10.8-23.4-11.3-39.6-.7-23.3,14-56.2,38.1-49.6h0,0Z"/>
      <path class="st2" d="M951.4,402.3l-.2.4s0-.1.2-.3h0Z"/>
      <path class="st2" d="M1021.3,376.2s0,.1,0,.1c1.5,2.7,2.8,5,3.8,7.1.2.4.5,1,.9,1.9,4.4-10.4,9.6-22,12.3-31.1-1.9-3.6-4.1-7.4-5.9-9.9-4.7,6.7-11.6,17.6-15.3,23.6,1.4,2.7,2.9,5.7,4.3,8.3h0Z"/>
      <path class="st2" d="M1038.9,411.5c1.3,6.7,3.3,14.2-5.4,10.8-4.4-1.7-9.2-3.6-11.9-7.8-.6,1.2-1.2,2.3-1.8,3.2-.8,1.1-1.6,2-2.5,2.9-.8.6-1.5,1.2-2.3,1.9-5.5,4-12.8,5.1-20.5,4.3-1.9,3-8.1,2.9-13.2-1.5-1-.9-1.9-1.9-2.7-3.1-3.6-1.4-7-2.8-7.9-3.3-1.9-1.1-12.3-8.9-12.3-8.9,0,0-1.9-1.9-4-4.1-2.3,4.6-4.3,9-5.9,13.1,1.9,2.4,3.6,4.3,5,5.8,10.8,11.6,45.7,30.6,71,19.4,5-2.2,8.9-5.8,11.9-10,0,0,2.8-4.2,3.8-6.8,5.5-12.1,6.3-26.7,6.3-33.9,0,0,0-1,0-2.5-3.4,8.7-6.3,16.3-7.9,20.5h0Z"/>
      <path class="st2" d="M915.3,264.2c4.2,12.2,7.1,27.5,5.7,49.4-.7,3.7-1.5,8.1-2.6,13.2,0,0-1.2,28.9,6.3,55.6.9,1.7,1.8,3.5,2.7,5.2h0s0,0,0,0c1,1.8,2,3.6,3.1,5.4,0,0,0,0,.1,0,.6.9,1.2,2,1.8,3,1.9-5.5,3.9-10.8,5.9-15.5-2-4.4-3.7-8.9-5.2-13.5,0,0-4.1-56.4,6.3-86.4,0-1.1.2-1.9.3-2.1,0,0-1.2-19.2-6.9-37.7-4.2,6.3-9.8,14.1-17.4,23.4h0Z"/>
      <path class="st2" d="M972,312.7c10,7.2,17.5,14.1,23.3,20.8,2.4-2,4.5-3.1,6.2-2.8,12.7,2.1,16.8,9,16.8,9,0,0,2.3,8-2.8,22.5,3.4-5.5,8.3-13.8,13.6-21.2-.8-1.1-1.7-2.1-2.5-3.1,0,0,0,0,0,0-.4-.5-.8-1-1.3-1.5h0c-1.2-1.5-2.3-2.8-3.4-4.1h0c-.5-.6-.8-1-.8-1-5.3-6-9.2-9.8-9.2-9.8-1.3-.4-13.4-10.2-24.7-15.4h0c-4.6-2.5-11.7-4.2-18-5.2l-4.3,7.8,3,.9c.8.9,2.3,1.9,4.2,2.9h0,0Z"/>
      <path class="st2" d="M913.2,337.9l-7.5,2s-5.6,1.9-12.8,1.8c-16.8-1-24.4-13.2-24.4-13.2l-7.7,10-.6,1.3,34.5,20.2s2.4,1.2,5.7.7c3.3-.6,4.5-3.2,4.5-3.2l8.5-19.6h-.2c0,0,0,0,0,0h0Z"/>
    </g>
    <path class="st0" d="M329,129c-1.2-5-7.4-18.2-12.4-24.8,2.3-5.8,5.8-32.5-14.7-39.1-3.5-1.5-40.6-6.2-98.7,22.1,0,0-42.2-34.8-91.7-34.1-5.4,0-92.5,0-101.8,72.4-1.6,10.8-1.9,65.8,61.5,77.4,7.3,1.9,32.1,5,66.6,1.9.3.3,8.8,6.6,13.1,9.8-15.6,2-40,6.3-65,15.1-5.8,1.8-12.6,4.4-19.5,7.9,0,0,0,0,0,0h0c-20.5,10.2-43.4,28.7-54.7,61.3-2.7,9.7-13.6,37.9-2.4,77,2,6.6,33.3,56.5,92.5,59.6.8.8,11.6,46.8,15.9,45.7,2.7-1.2-8.5-45.7-8.5-45.7,0,0,84.7,5.7,139.5-69.1,12.9-17.5,30.5-50.3,11.8-83.8-2.7-6.2-20.9-29.4-76.3-27.1-1.1,0-2.1.2-3.1.6h0s-55.1,14.4-73.3,57.6c-.9,1.7-1.9,4-2.6,7.2h0c-1.4,6.4-1.8,16.2,1.2,30.5-.4,5-9.3,61.5-5.8,67.4-7-1.5-48.8-5-45.3-56.9.4-18.2,7.7-87.1,83.2-126.6,5-.8,20.5-10.1,44.5-6.6s35.6,8.1,37.9-2.7-40.6-5.4-43.4-7.4c1.6-2.7,12.4,2.7,12.4-6.2v-19.4l29-12.4s22.1,33.7,68.1,15.9c5.4-2.7,53.8-28.6,41.8-67.7h0s0,0,0,0ZM119.6,365.6c6.2,5.7,33,21.4,55.5,5.9,6.7-5.4,17.3-19.6,1-29.7s-28.9,15.5-28.9,15.5c0,0-21.4,10.8-18.6-13.9,0,0,32.8-62.2,72-61.7,7.7.3,34.9.9,34.5,37.7,0,6.7-2,64.5-81.7,98.3-3.6,2.1-10.8,8.5-43.1,2.6-.8-7.2-1.6-45.2,9.3-54.7h0ZM286.8,71.3c25.2-1.2,24,15.5,23.6,25.5,0,1.2-.4,2.1-1,2.8-15.9-7.7-39.3-6.7-51.1-5.6-2.8.2-5.3.5-7.5.9h0c-4.5.8-7.7,1.9-8.9,2.7,0,0-7.5,2.5-17.4,7.1-2.7-2.4-5.1-5.6-5.1-5.6,16.9-20,58.2-27.1,67.5-27.9h0ZM128.9,190.2c-2.3,1.9-31.3.4-34.4,0-46.5-5-45.3-36-46.1-43.7-1.9-44.1,38.7-36,40.6-33.3,5.6,7.8-11.6,6.6-16.3,6.2.4,4.7,5,5.8,8.1,5.8,21.7.4,12.1-15.9,10.1-17.6-12.5-10.4-44.9,7.2-48,9.9,0,0-18,18.8-19,7.7-5-53.8,64.6-62.7,70.8-63.5,68.1-5,100.7,31,100.7,31-70.8,36.4-67.7,91-66.6,97.6h0ZM184.3,132.1h0c-7.8,8.8-16.5,23.1-25.2,47.6,0,0-1.2-40.3,52.3-75.1,1.9,1.4,3.9,2.7,5.4,3.9-11.4,5.9-24.1,13.9-32.5,23.6ZM215.3,143.6c-6.1,3.3-23.6,8.5-3.4,24.4-1.8,2-6.4,4.4-16.4,6.6,0,0-7.4-30.2,29-57.3,5.4,5.8,11.2,13.9,15.5,12s-9.7-15.1-9.7-15.1c0,0,7.4-11.2,34.7-11.6,6.4.4,39.3,6.6,33.1,16.7-8.1,8.1-41.4,34.8-45.7,32.9.4-.8.6-1.6.8-2.3h0c0,0,0,0,0-.1.4-1.3,3.7-13.3-2.4-13.3s-22.2,0-35.6,7.2h0ZM300.4,160.7c-6.2,6.2-21.3,29-39.9,25.9-6.6-1.2-14.2-6.2-13.7-20.1,0,0,55.1-37.9,55.9-42.2,1.2,7.7,3.9,30.2-2.3,36.4h0Z"/>
  </g>
  <path class="st2" d="M960.8,316.2s3.6-5.7,14.2-1.4c2.6-5.3,5.5-11.4,5.5-11.4l-11.3-2.5-8.3,15.2h0Z"/>
</svg>