<?xml version="1.0" encoding="UTF-8"?>
<svg id="Calque_1" xmlns="http://www.w3.org/2000/svg" version="1.1" xmlns:xlink="http://www.w3.org/1999/xlink" viewBox="0 0 1125 405.1">
  <!-- Generator: Adobe Illustrator 29.1.0, SVG Export Plug-In . SVG Version: 2.1.0 Build 142)  -->
  <defs>
    <style>
      .st0 {
        fill: #6e4d2f;
      }

      .st1 {
        filter: url(#drop-shadow-1);
      }

      .st2 {
        isolation: isolate;
      }

      .st3 {
        fill: #170b01;
      }

      .st4 {
        display: none;
      }
    </style>
    <filter id="drop-shadow-1">
      <feOffset dx="7" dy="7"/>
      <feGaussianBlur result="blur" stdDeviation="5"/>
      <feFlood flood-color="#000" flood-opacity=".75"/>
      <feComposite in2="blur" operator="in"/>
      <feComposite in="SourceGraphic"/>
    </filter>
  </defs>
  <g id="Calque_11" data-name="Calque_1" class="st4">
    <image class="st2" width="520" height="280" transform="translate(897 743.8) rotate(-180) scale(2.9)" xlink:href="heroVecteur-1.png"/>
  </g>
  <g id="Calque_2" class="st1">
    <path class="st0" d="M62.5,65.5s28-33,32-25c2,9,8,32-32,25Z"/>
    <path class="st0" d="M266.5,46.5s4.9-16.5,15-7.2-1,12.2-15,7.2Z"/>
  </g>
  <path class="st3" d="M2,405.1h1123V75.6s-70.5-2.2-104.5,13.8h0c-1,1,10.2-11.9,1.6-7-8.6,5-46.6,43-53.6,46s-83,35-83,35h-27s-41-30-51-30c1-3-8-16-34-17-2,0-.9,4-9.5,0-7.1-1-19.5-6-29.5,5s-30.9,35-49.9,42c-2.2.8-4.5,1.7-6.8,2.7-1.2.5-2.5,1-3.7,1.6,4.2,9.9,3.2,15-.5,15.7-5,1,7,23,4,26-7,0-13-10-24-18,9.6-6.7,8.7-11.9,3.5-15.7-5.6-4.1-16.2-6.8-24-8.3-5.5-18-10.5-11-23.5-11-20,2-16-5-26-22-14-17-18.5-7.7-29.5,2.7-14.5,20.7-24.5,21.3-41.5,24.3,6-4,14.1-25.7,15.9-38.3,7.9-5.3,20.6-16.6,25.5-33.9-18.5,26.8-23.5,15.2-34.5,11.2,7,35-6.7,48.4-14.3,50.6-13.3-5.4-30.8,14.9-42.6,23.9-12.4,7.4-24.6,15.6-36.2,24.2-2.8-4.2-6-8.3-9.9-11.7-13-11-10-28-7.8-36.1,2.2-8.1-15.2-20.9-25.2-21.9-7,2-14.2-7-29.8-15-1.8-8-5.2-30-5.2-30h-8s-2,13-5,22c-22,12-32-9-38-18s-30.5-7.8-30.5-7.8c0,0-67.5-51.2-86.5-63.2s-18-4-25,2c-13-20-15-4-32,6s-15,31-15,31c0,0-27,18-33,23s-13.1-2-22.9,5c-.9,9-9.1,6-15.1,9-5,8-5,2-6-9-6,1-7,34-7,34,0,0-7,15-12,23S0,151.4,0,151.4v112.3s.7.1,2,.3v141.2ZM349.5,128.5c14,4,14-7,25,5s19,5,9,24c0,9,4.5,18-12.7,17.5-16.5-1-31.9,9.5-34.1,0,2.6-11,9.8-27.5-11.2-51.5,0,0,21-2,24,5ZM68.5,89.5c-11.9,11.9-30.6,25.2-32.9,33.5.8-3,10-36.4,32.9-33.5Z"/>
</svg>