<?xml version="1.0" encoding="UTF-8"?>
<svg id="Calque_1" xmlns="http://www.w3.org/2000/svg" version="1.1" viewBox="0 0 593.7 430.8">
  <!-- Generator: Adobe Illustrator 29.1.0, SVG Export Plug-In . SVG Version: 2.1.0 Build 142)  -->
  <defs>
    <style>
      .st0, .st1 {
        fill: #fff;
      }

      .st1 {
        display: none;
      }

      .st2 {
        fill: #1d6ba7;
      }
    </style>
  </defs>
  <g id="Calque_2">
    <path class="st0" d="M469.7,78s-9.1,27.4-39.5,25.8c-7.6-.7-4.1-8.7,15.7-25.3,9-5.5,64.2-24.4,89.6-29.9,14.6-4.7,24.5-10.2,24.5-10.2,0,0,11,2.1-24.8,40,2.5.5,25.9-15.6,39.3-43.8,6.9-11,25-30.2,17.6-33.1-5.9-1.5-15.1,26.4-32.3,31.9s-95.5,29.6-113,38.7c-1.2,2.7-43.2,15-29.1,35.9,3.4,4.4,24.1,9.3,38.4-4.2s15.4-23.1,13.7-25.8h0Z"/>
    <path class="st1" d="M1.3,222.3s-12.9,12.2-21.5,38.2c.2-4.6.4-7-4.9,9.9-.9,3-5.8,16.2-5.8,16.2,0,0-2.8,10.4,6.6-2.8s9.9-21.2,10.7-23.7S2.2,225.4,1.3,222.3h0Z"/>
    <path class="st1" d="M-109.4,314s9,3.6-3.4,30-37.9,73.8-2.3,73.4c3.7-8.1,39.7-96.1,52.7-94.1,5.7,1.6-16.6,57.2-16.6,57.2,0,0-11.5,31.2,17.5,30,2.7-.8-8,.7,14.2-49.1,22.2-49.7,7-47.5,7-47.5,0,0-13.5-13.1-22.2-2.8s-44.8,68.8-42.2,72.4c3.8-13.5,43.2-78.1-4.9-69.6h0Z"/>
    <path class="st1" d="M-180,307.8c-31.6-3.3-58.2,45.9-58.2,45.9,0,0-21.6,63.5,19.4,63.7,8.9.2,44.8-15.1,29.8-35.4-1.2,3.1-24.4,56.9-28-.2l39.3-19.9s29.4-50.9-2.2-54.2h0ZM-213.9,369.6c-.8-7.5,22.6-53,35.5-50.9s-7.2,36.4-7.2,36.4l-28.2,14.5h0Z"/>
    <path class="st1" d="M564.8,308.9c-31.6-3.3-58.2,45.9-58.2,45.9,0,0-21.6,63.5,19.3,63.7,8.9.2,44.8-15.1,29.8-35.4-1.2,3.1-24.4,56.9-28-.2l39.3-19.9s29.4-50.9-2.2-54.2h0ZM531,370.8c-.8-7.5,22.6-53,35.5-50.9s-7.2,36.4-7.2,36.4l-28.2,14.5h0,0Z"/>
    <path class="st1" d="M-122.1,349.9c-5-1.1-17.3-1.8-17-5.7,3.2-3.6,15.9-31.8,0-35.9-4.1-.9-20,4.8-20,25.5-.4,7,6.8,15.9,13.6,18.2-2,4.5-32.9,61.3-53.6,48.4,0,0,3.2,7.5,9.8,7,6.6-.5,15.9-7,21.1-13,5.2-5.9,22.5-32.5,25-41.6,2.7,1.4,3.6,2.5,3.6,2.5,0,0-32.5,57.5-5.2,63.2,6.6,1.6,12.7-4.1,13.4-7.7-1.6-.7-16.4,4.8,9.3-60.9h0,0ZM-141.9,341.9s-5-5.2-4.3-15.5,6.4-12.3,6.4-12.3c0,0,5.2,2.7,3.4,12s-2.9,13.6-5.4,15.7h0Z"/>
    <path class="st1" d="M-242,400.2s4.6,16.8-25.5,17.7,0-94.1,0-94.1l8.2-27.3s-4.5-1.8-18.6,7.3c-2.7-4.1-.9-17.9,20.9-15.3,1.8-7.4,10.9-38.8,10.9-38.8,0,0-4.6-6.4-2.7-9.6,1.8-3.2,22.3,3.6,23.6,19.6s-.4,18.5,0,28.8c3.2-.6,7.5,3.5,17.1-7.2,2-.5,6.9-1,2.9,6-2.4,3.7-6.4,6.6-21.1,6.7-1.1,6.4-24.8,83.3-24.8,83.3,0,0-13.7,34.6,9.1,23h0Z"/>
    <path class="st1" d="M398.1,417.8s-23.2,3.9-16.5-22.2c6.7-26.1,20.4-53.2,20.4-53.2,0,0,9.3-16,1.3-22.7,4.1-3.4,17.8-.8,21.2,5.7,3.4,6.5-2.6,25.5-2.6,25.5l-16.5,34.8s37.7-74.1,50.3-72c12.6,2.1,16.8,9,16.8,9,0,0,2.3,8-2.8,22.5,8-13.2,25-41.8,34.3-37.7,9.3,4.1,16,5.4,13.9,17.8s-20.1,56.3-24.8,69.2c1.3,6.7,3.4,14.2-5.4,10.8s-19.1-7.7-11.1-28.4,24.8-53.2,14.7-55.2c-2.3,0-22.7,33.5-22.7,33.5,0,0-22.5,42.1-19.3,52.9-.4,4.6-7.8,5.4-13.8.3-5.9-5.2-9-17,.8-37.2,9.8-20.1,16.3-44.1,10.6-43.6-2.6.8-38.5,54.7-46.5,81.3-.5,3.9-1,10.6-2.3,8.8h0Z"/>
    <path class="st0" d="M507.9,100.6s16.3-24.8,9.3-27.9c-7,1.6-58.8,24.8-143.2,127-5.7-3.8-27.9-27.7-50.6-29.4l14.2,24.4c6.9,1.8,12,8.2,17,16.6,4.9,8,.5,13.2-2.4,15.4l-8,9.6h0c-1.5,1.9-4,4.8-6.9,8.3h0s0,0,0,0c-12.5,14.6-34.4,39.1-34.4,39.1,0,0-9.4-16.6-11.1-37.1l-14.3-3.9c.3,4.1.9,8.4,1.8,12.9,8.2,39,13.3,41.2,13.3,41.2l-41.3,47.4s-10,9.8-23.9,21.3c-6.9,5.4-13.5,10.4-16.9,12.7-49.6,36.1-97,28.9-105.4,25.3-59.2-15.5-71.1-74.8-71.6-86.7,2.1-84.1,57.3-91.9,65.6-92.4,56.1-4.2,66.1,19.1,71.7,30.6,18.6,41.5-12.4,73.9-12.4,73.9-30.9,2.6-35.1-11.1-42.3-20.8-12.9-13.4,34.1-36.2,40.8-45,9.8-16.1-17-31.9-22.7-32.4-45.4,2.1-49,49-48,53.1,5.2,43.3,42.8,52.7,56.3,56.3-8.8,12.4-55.2,12.9-63,15.5,4.7,11.4,38.7,2.6,38.7,2.6,0,0,45.9-16.5,52.1-20.1,10.1-1.3,18.7-3.4,25.9-5.8h0c15.8-5.4,24.9-12.6,29.9-16.9,5.1-4.1,8.8-7.2,8.8-7.2,6.7-10.9,21.8-28.9,19.1-55.3-2.4-24.4-24.3-47-27.5-50.2-.1-.1-.3-.3-.4-.4-3.9-4-19.4-10.3-19.4-10.3,0,0-38.3-13.5-86.6-.4h0c-9.5,2.6-19.4,6.2-29.5,11.2-2.3,2.3-104.5,30.4-89,132.5,3.1,15.4,10.1,78.1,120,86.6,13.5.8,85.1,2.2,148-51.9l18.2-18.2,26.6-28.8s9.9,4.7,19.4,9.3l3.1-9.4c-10.2-3.2-14.3-11.2-14.3-11.2l22.9-30.3s8.5-17.2,19.9-29.5h0l3.7-4.5s7.7,11.7,7.2,40.3c3.6-6.5,9.3-16.6,2.6,5.5-3.8,12.6-9.5,24.4-13.6,32.4h0s-21.5,52.2-23.8,57c-1.4,3-3.3,6.8-6,11.2h0c-4.8,9.5-7.2,15.5-7.2,15.5,0,0,3.9,8.7,11.6,8.7s20.1-5.8,20.1-5.8l4.4-11.8s1.2-3.2,2.8-7.4l2.9-7.7h0c1.2-3.2,2.5-6.3,3.5-9-.2,0-.3,0-.5,0,7.7-14.7,103.7-190.4,103.7-190.4,0,0,2.3-31.1,57.3-79.8-8.5-7-26.3-5.4-26.3-5.4h0ZM221.6,230.3h0c8.4,18.1,13,40.2,1.4,59,0,0-6,12.9-12.1,19.9h0c-7.4,9.7-20.7,23-44.2,19,6.7-8.3,31.5-59.4,3.1-92.4-5.8-7.1-21.1-26.1-56.6-30.5,0,0,0,0,0,0,64.3-13.9,88,2.7,88,2.7,0,0,14.1,5.6,20.3,22.4h0ZM507.4,87.1c-10.8,13.4-14.4,15.5-14.4,15.5l-17.6,4.1s37.7-33,32-19.6ZM387.2,223.9c31.8-64,76.3-96.6,95.2-107.2.5-.3.9-.6,1.3-.7-.4.2-.9.5-1.3.7-18.3,12.3-88.5,145-88.5,145l-6.7-37.8h0ZM513.6,116c-3.6,5.2-41.8,42.3-41.8,42.3l30.5-48.5s15,1,11.3,6.2h0Z"/>
  </g>
  <g>
    <path class="st2" d="M369.5,247.4h0s0,0,0,0h0Z"/>
    <path class="st2" d="M329.9,194.5h0c22.1,6.1,20.4,12.8,26.2,27.4l18.5-22.7c-2.9-3.3-6.1-5.9-9.9-7.5-.8-.9-32.5-30.6-56.5-18.8-24.9,12.2-31.5,51-30.8,66.9.5,12,1.7,36,14.8,57.5,1.6-2.9,10.9-13.7,10.9-13.7,0,0-10.8-23.4-11.3-39.6-.7-23.3,14-56.2,38.1-49.6h0Z"/>
    <path class="st2" d="M367.4,321l-7.5,2s-5.6,1.9-12.8,1.8c-16.8-1-24.4-13.2-24.4-13.2l-7.7,10-.6,1.3,29.7,15.8s7.4,2.5,10.8,1.8,5-1.9,5-1.9l7.6-17.7h-.2c0,0,0,0,0,0h0Z"/>
    <path class="st2" d="M405.6,385.5h0s0,0,0,0h0Z"/>
    <path class="st2" d="M492.5,337.4h0c-4.4-10.1-9.2-13.2-9.2-13.2-.8-1.1-1.7-2.1-2.5-3.1h0s0,0,0,0c-.4-.5-.8-1-1.2-1.5h0c-1.2-1.5-2.3-2.8-3.4-4.1h0s0,0,0,0c-.5-.6-.8-1-.8-1-3.3-3.8-6.1-6.6-7.7-8.3s-1.5-1.5-1.5-1.5c-1.3-.4-13.4-10.2-24.7-15.4-4.6-2.5-11.6-4.2-18-5.2l-2.9,5.4c-3,5.6-7.7,14.1-10.2,18.7,7-12.2,25.5-4.5,26.7-4,5,4.2,9.1,8.4,12.7,12.4,0,0,0,0,0,0h0c9.3,9.4,21.4,33.9,21.7,34.4,0,0,0,0,0,0,1.4,2.7,2.9,5.7,4.3,8.3,0,0,0,.1-.1.1,1.2,2.1,2.2,4,3.1,5.7.5,1,1,1.9,1.3,2.5.1.2.2.4.3.7,0,0,0,0,0,0,0,0,0,0,0,0,.9,1.9,3.9,14.3-4.2,29.2,0,0,0,0,0,0,0,0,0,0,0,0-.1.3-.3.5-.4.8-4.1,6.9-9.9,9.8-14.9,11-.2,0-.4,0-.6.1-.6.1-1.1.2-1.7.3-.2,0-.4,0-.5,0-.6,0-1.2.1-1.9.2,0,0-.1,0-.2,0-.6,0-1.3,0-2,0h-.4c-.7,0-1.4,0-2.1,0,0,0-.1,0-.2,0-.4,0-.8,0-1.2,0h0c-2.3-.2-7.6-1.2-16.9-4.7-4.5-1.7-7.9-3.4-10.8-5.2-2-1.4-4.4-3.2-6.4-4.6-2.4-2-4.5-4.1-7-6.4-1-1-2.1-2.2-3.2-3.6h0c-6.2-8-13-21.8-13-21.8-2-4.4-3.7-8.9-5.2-13.5,0,0-4.1-56.4,6.3-86.4.1-1.1.2-1.9.3-2.1,0,0-1.2-19.2-6.9-37.7,0,0,0,0,0,0,0,0,0,0,0,0-4.2,6.3-9.8,14.1-17.4,23.3,4.1,12.3,7.1,27.4,5.7,49.4-.7,3.7-1.5,8.1-2.6,13.2,0,0-1.2,28.9,6.4,55.6.9,1.7,1.8,3.5,2.7,5.2,0,0,0,0,0,0,1,1.8,2,3.6,3.1,5.4h0s0,0,0,0c.6.9,1.2,1.9,1.8,3,0,0,0,0,0,0,0,0,0,0,0,0,6,10.2,15.6,22.3,16.2,23h0c1.9,2.4,3.6,4.3,5,5.8.3.4.7.8,1.1,1.1,11.9,11.7,45.4,29.2,70,18.3,5-2.2,8.9-5.8,11.9-10,0,0,2.8-4.2,3.9-6.8,5.5-12.1,6.3-26.7,6.3-33.9,0,0,0-1,0-2.5.2-8.4-4.1-26.7-8.5-36.8h0Z"/>
    <path class="st2" d="M410.1,308.2c0,.1-.1.2-.2.3-2.3,4.3-1.7,3.2.2-.3Z"/>
  </g>
</svg>